<?xml version="1.0" encoding="iso-8859-1"?>
<!-- Generator: Adobe Illustrator 17.1.0, SVG Export Plug-In . SVG Version: 6.00 Build 0)  -->
<!DOCTYPE svg PUBLIC "-//W3C//DTD SVG 1.1//EN" "http://www.w3.org/Graphics/SVG/1.1/DTD/svg11.dtd">
<svg version="1.1" id="Capa_1" xmlns="http://www.w3.org/2000/svg" xmlns:xlink="http://www.w3.org/1999/xlink" x="0px" y="0px"
	 viewBox="0 0 91.036 91.036" style="enable-background:new 0 0 91.036 91.036;" xml:space="preserve">
<g>
	<path d="M24.183,20.458c5.641,0,10.229-4.589,10.229-10.229C34.412,4.589,29.824,0,24.183,0c-5.64,0-10.229,4.589-10.229,10.229
		C13.954,15.869,18.543,20.458,24.183,20.458z"/>
	<path d="M68.13,18.188c5.014,0,9.094-4.079,9.094-9.094S73.144,0,68.13,0s-9.094,4.079-9.094,9.094S63.116,18.188,68.13,18.188z"/>
	<path d="M88.374,47.909l-7.937-24.593c-0.47-1.455-2.036-2.596-3.566-2.596h-0.275h-0.929h-0.434c-0.081,0-0.155,0.018-0.234,0.025
		c-0.082-0.007-0.161-0.025-0.245-0.025H61.507c-0.017,0-0.032,0.005-0.049,0.005c-0.016,0-0.03-0.005-0.046-0.005h-1.638
		c-1.47,0-3.132,1.031-3.785,2.347l-9.091,18.316L34.726,24.368c-0.082-0.114-0.181-0.212-0.278-0.311
		c-0.539-0.805-1.455-1.337-2.494-1.337H16.992H16.41h-1.283c-1.433,0-3.143,0.877-3.979,2.041L3.247,35.77
		c-0.863,1.201-0.97,3.152-0.243,4.441l6.393,11.348c0.711,1.264,2.404,2.253,3.854,2.253h0.159v0.298v0.102v29.402
		c0,2.757,2.207,5,4.918,5s4.918-2.243,4.918-5V57.211h1.872v26.402c0,2.757,2.206,5,4.918,5s4.918-2.243,4.918-5V54.211v-0.102
		V38.202l8.35,11.673c0.14,0.196,0.302,0.371,0.482,0.525c0.367,0.549,0.95,0.944,1.664,1.084l1.443,0.282
		c0.203,0.039,0.41,0.059,0.619,0.059c1.371,0,2.732-0.829,3.312-2.016l7.684-15.753v9.501c-0.65,0.399-1.213,0.931-1.552,1.529
		L51.06,55.496c-0.414,0.73-0.478,1.553-0.175,2.258s0.942,1.227,1.757,1.431l6.398,1.6v26.251c0,2.206,1.794,4,4,4h0.389
		c2.206,0,4-1.794,4-4V62.758c0.287,0.023,0.584,0.038,0.891,0.038c0.399,0,0.788-0.021,1.152-0.058v24.299c0,2.206,1.794,4,4,4
		h0.39c2.206,0,4-1.794,4-4v-26.36l5.765-1.481c0.812-0.208,1.45-0.733,1.75-1.439c0.3-0.707,0.236-1.53-0.177-2.26l-3.331-5.882
		c0.715,0.895,1.847,1.506,2.964,1.506h0.275h0.653h0.276c0.848,0,1.591-0.354,2.04-0.971
		C88.527,49.533,88.635,48.717,88.374,47.909z M13.41,44.864l-3.012-4.906c-0.368-0.6-0.337-1.673,0.065-2.251l2.946-4.228V44.864z
		 M79.305,45.087c-0.339-0.598-0.902-1.13-1.551-1.529v-5.791l0.567,1.631l2.945,9.127c0.012,0.036,0.032,0.069,0.044,0.104
		L79.305,45.087z"/>
</g>
<g>
</g>
<g>
</g>
<g>
</g>
<g>
</g>
<g>
</g>
<g>
</g>
<g>
</g>
<g>
</g>
<g>
</g>
<g>
</g>
<g>
</g>
<g>
</g>
<g>
</g>
<g>
</g>
<g>
</g>
</svg>
