<svg xmlns="http://www.w3.org/2000/svg" viewBox="0 0 289.208 289.208"><path d="M284.275 176.745c5.1-3.41 6.468-10.308 3.058-15.405l-38.876-58.124c-5.15-7.695-13.022-11.707-21.287-11.707h-16.658c-9.588 0-17.23 5.8-22.1 13.326-.488.753 2.42-3.68-37.984 56.486-3.42 5.092-2.063 11.99 3.028 15.41 5.09 3.42 11.99 2.066 15.41-3.027l16.657-24.802.034 112.663c0 7.667 6.215 13.882 13.882 13.882 7.666 0 13.88-6.215 13.88-13.882v-62.47h11.108v62.47c0 7.667 6.215 13.882 13.882 13.882s13.882-6.215 13.882-13.882c0-119.736-.033-111.963-.033-112.865l16.71 24.987c3.415 5.106 10.318 6.463 15.405 3.058zM218.874 80.75c14.696 0 26.615-11.908 26.615-26.614 0-9.582-5.077-17.983-12.687-22.668 1.573-1.112 3.405-2.14 5.57-3.017.91-.367 1.52-1.23 1.567-2.21.047-.98-.48-1.897-1.352-2.35-4.21-2.186-9.338-2.23-14.178-1.303.82-1.538 1.855-3.11 3.183-4.702.628-.754.76-1.804.34-2.69-.42-.885-1.318-1.445-2.3-1.435-9.728.11-18.65 9.972-22.203 15.87-.826 1.37-1.446 2.82-1.837 4.283-5.71 4.88-9.335 12.13-9.335 20.223 0 14.706 11.92 26.614 26.616 26.614zM100.382 104.202C95.588 96.932 87.96 91.51 78.63 91.51H61.97c-9.49 0-17.746 5.29-21.976 13.085-.514.74-37.605 55.98-38.107 56.728-3.42 5.092-2.063 11.99 3.028 15.41 5.09 3.42 11.99 2.066 15.41-3.027l16.657-24.802v.307l-15.118 61.64c-.706 2.874-.05 5.914 1.776 8.243 1.828 2.33 4.624 3.69 7.585 3.69h5.79v38.784c0 7.667 6.216 13.882 13.883 13.882s13.882-6.216 13.882-13.883v-38.784h11.106v38.784c0 7.667 6.215 13.882 13.882 13.882s13.882-6.216 13.882-13.883v-38.784h5.726c2.96 0 5.757-1.36 7.585-3.69 1.828-2.33 2.483-5.37 1.777-8.244l-15.12-61.643v-.403l16.724 24.902c3.422 5.094 10.324 6.445 15.412 3.028 5.092-3.42 6.448-10.32 3.028-15.41-41.02-61.086-37.918-56.393-38.398-57.122zM17.233 88.896c.978.08 1.912-.414 2.396-1.268 7.31-12.904 18.78-11.81 21.348-16.575.354-.658.633-1.336.84-2.025.782.844 1.884 1.34 3.043 1.34.46 0 .926-.076 1.382-.237.77-.27 1.4-.75 1.873-1.346 4.763 7.21 12.935 11.967 22.22 11.967 9.286 0 17.46-4.756 22.22-11.966.473.596 1.104 1.076 1.875 1.347.457.162.923.238 1.38.238 1.16 0 2.262-.496 3.045-1.34.206.69.484 1.367.84 2.025 2.567 4.765 14.036 3.67 21.347 16.575.483.854 1.418 1.35 2.396 1.268.98-.08 1.82-.724 2.155-1.646 3.33-9.14-2.747-20.968-7.012-26.376-3.667-4.653-9.314-7.166-14.53-4.355-.187.1-.358.214-.535.322l.043-.122c.763-2.17-.378-4.547-2.548-5.31-1.48-.52-3.04-.143-4.134.827-.976-13.8-12.483-24.706-26.54-24.706-14.057 0-25.564 10.908-26.54 24.708-1.095-.97-2.657-1.348-4.133-.828-2.17.763-3.31 3.14-2.548 5.31l.043.122c-.177-.11-.35-.224-.533-.323-5.217-2.812-10.864-.3-14.533 4.354-4.265 5.408-10.34 17.236-7.012 26.376.334.922 1.175 1.565 2.153 1.646z"/></svg>