<svg xmlns="http://www.w3.org/2000/svg" viewBox="0 0 289.208 289.208"><path d="M284.275 176.745c5.099-3.41 6.468-10.308 3.058-15.405l-38.876-58.124c-5.15-7.695-13.022-11.707-21.287-11.707h-16.658c-9.588 0-17.229 5.802-22.101 13.327-.487.753 2.422-3.679-37.983 56.486-3.42 5.092-2.063 11.991 3.028 15.411 5.089 3.418 11.99 2.065 15.411-3.028l16.656-24.802.034 112.663c0 7.667 6.215 13.882 13.882 13.882s13.882-6.215 13.882-13.882v-62.471h11.107v62.471c0 7.667 6.215 13.882 13.882 13.882s13.882-6.215 13.882-13.882c0-119.736-.033-111.963-.033-112.865l16.712 24.986c3.414 5.106 10.317 6.463 15.404 3.058zM218.874 80.75c14.696 0 26.615-11.908 26.615-26.614 0-9.582-5.076-17.983-12.686-22.668 1.573-1.112 3.405-2.139 5.57-3.017a2.512 2.512 0 0 0 .215-4.561c-4.209-2.186-9.338-2.231-14.178-1.303a27.646 27.646 0 0 1 3.183-4.702 2.515 2.515 0 0 0-1.96-4.125c-9.728.111-18.649 9.972-22.203 15.869a16.673 16.673 0 0 0-1.837 4.284c-5.71 4.881-9.335 12.129-9.335 20.223.001 14.706 11.92 26.614 26.616 26.614zM100.382 104.202c-4.794-7.27-12.422-12.693-21.752-12.693H61.971c-9.491 0-17.747 5.292-21.977 13.086-.514.74-37.605 55.979-38.107 56.728-3.42 5.092-2.063 11.991 3.028 15.411 5.089 3.418 11.99 2.065 15.411-3.028l16.656-24.802v.307l-15.118 61.638a9.635 9.635 0 0 0 9.361 11.934h5.791v38.784c0 7.667 6.215 13.882 13.882 13.882s13.882-6.215 13.882-13.882v-38.784h11.106v38.784c0 7.667 6.215 13.882 13.882 13.882s13.882-6.215 13.882-13.882v-38.784h5.726a9.64 9.64 0 0 0 9.361-11.934l-15.119-61.642h-.001v-.403l16.724 24.902c3.421 5.094 10.323 6.445 15.411 3.028 5.092-3.42 6.448-10.319 3.028-15.411-41.021-61.085-37.918-56.392-38.398-57.121zM17.233 88.896a2.515 2.515 0 0 0 2.396-1.268c7.311-12.904 18.78-11.81 21.349-16.575.354-.658.633-1.336.839-2.025a4.164 4.164 0 0 0 3.044 1.34 4.133 4.133 0 0 0 3.254-1.584c4.763 7.21 12.935 11.967 22.221 11.967 9.285 0 17.458-4.757 22.22-11.967a4.13 4.13 0 0 0 6.299.244c.206.689.484 1.367.839 2.025 2.568 4.765 14.037 3.671 21.348 16.575a2.514 2.514 0 0 0 4.551-.378c3.329-9.14-2.747-20.968-7.012-26.376-3.668-4.653-9.315-7.166-14.532-4.355-.186.1-.357.215-.534.323l.043-.122a4.164 4.164 0 0 0-2.548-5.31c-1.479-.521-3.04-.143-4.134.827-.976-13.8-12.483-24.706-26.539-24.706-14.058 0-25.565 10.907-26.54 24.707-1.096-.97-2.658-1.348-4.134-.828a4.164 4.164 0 0 0-2.548 5.31l.043.122c-.177-.109-.349-.224-.533-.323-5.217-2.811-10.864-.299-14.533 4.355-4.265 5.408-10.341 17.236-7.012 26.376a2.51 2.51 0 0 0 2.153 1.646z"/></svg>