<svg xmlns="http://www.w3.org/2000/svg" viewBox="0 0 91.036 91.036"><path d="M24.183 20.458c5.641 0 10.229-4.589 10.229-10.229C34.412 4.589 29.824 0 24.183 0c-5.64 0-10.229 4.589-10.229 10.229 0 5.64 4.589 10.229 10.229 10.229zM68.13 18.188c5.014 0 9.094-4.079 9.094-9.094S73.144 0 68.13 0s-9.094 4.079-9.094 9.094 4.08 9.094 9.094 9.094zM88.374 47.909l-7.937-24.593c-.47-1.455-2.036-2.596-3.566-2.596H75.233c-.081 0-.155.018-.234.025-.082-.007-.161-.025-.245-.025H61.507c-.017 0-.032.005-.049.005-.016 0-.03-.005-.046-.005h-1.638c-1.47 0-3.132 1.031-3.785 2.347l-9.091 18.316-12.172-17.015c-.082-.114-.181-.212-.278-.311a3 3 0 0 0-2.494-1.337H15.127c-1.433 0-3.143.877-3.979 2.041L3.247 35.77c-.863 1.201-.97 3.152-.243 4.441l6.393 11.348c.711 1.264 2.404 2.253 3.854 2.253h.159v29.802c0 2.757 2.207 5 4.918 5s4.918-2.243 4.918-5V57.211h1.872v26.402c0 2.757 2.206 5 4.918 5s4.918-2.243 4.918-5V38.202l8.35 11.673c.14.196.302.371.482.525.367.549.95.944 1.664 1.084l1.443.282c.203.039.41.059.619.059 1.371 0 2.732-.829 3.312-2.016l7.684-15.753v9.501c-.65.399-1.213.931-1.552 1.529l-5.896 10.41c-.414.73-.478 1.553-.175 2.258s.942 1.227 1.757 1.431l6.398 1.6v26.251c0 2.206 1.794 4 4 4h.389c2.206 0 4-1.794 4-4V62.758a11.126 11.126 0 0 0 2.043-.02v24.299c0 2.206 1.794 4 4 4h.39c2.206 0 4-1.794 4-4v-26.36l5.765-1.481c.812-.208 1.45-.733 1.75-1.439.3-.707.236-1.53-.177-2.26l-3.331-5.882c.715.895 1.847 1.506 2.964 1.506H86.037c.848 0 1.591-.354 2.04-.971.45-.617.558-1.433.297-2.241zM13.41 44.864l-3.012-4.906c-.368-.6-.337-1.673.065-2.251l2.946-4.228v11.385zm65.895.223c-.339-.598-.902-1.13-1.551-1.529v-5.791l.567 1.631 2.945 9.127c.012.036.032.069.044.104l-2.005-3.542z"/></svg>