<svg xmlns="http://www.w3.org/2000/svg" viewBox="0 0 91.036 91.036"><path d="M24.183 20.458c5.64 0 10.23-4.59 10.23-10.23C34.412 4.59 29.822 0 24.182 0c-5.64 0-10.23 4.59-10.23 10.23 0 5.64 4.59 10.228 10.23 10.228zM68.13 18.188c5.014 0 9.094-4.08 9.094-9.094S73.144 0 68.13 0s-9.094 4.08-9.094 9.094 4.08 9.094 9.094 9.094zM88.374 47.91l-7.937-24.594c-.47-1.455-2.036-2.596-3.566-2.596H75.234c-.08 0-.155.018-.234.025-.083-.007-.162-.025-.246-.025H61.507c-.017 0-.032.005-.05.005-.015 0-.03-.005-.045-.005h-1.638c-1.47 0-3.132 1.03-3.785 2.347l-9.092 18.316-12.172-17.015c-.082-.114-.18-.212-.278-.31-.54-.806-1.455-1.338-2.494-1.338H15.127c-1.433 0-3.143.877-3.98 2.04l-7.9 11.01c-.863 1.2-.97 3.152-.243 4.44l6.393 11.35c.71 1.263 2.404 2.252 3.854 2.252h.16v29.802c0 2.757 2.207 5 4.918 5s4.918-2.243 4.918-5V57.21h1.872v26.403c0 2.757 2.206 5 4.918 5s4.918-2.243 4.918-5V38.203l8.35 11.673c.14.196.302.37.482.525.367.55.95.944 1.664 1.084l1.443.282c.203.04.41.06.62.06 1.37 0 2.73-.83 3.31-2.017l7.685-15.754v9.5c-.65.4-1.213.932-1.552 1.53l-5.896 10.41c-.414.73-.478 1.553-.175 2.258s.942 1.227 1.757 1.43l6.398 1.6v26.252c0 2.206 1.794 4 4 4h.39c2.205 0 4-1.794 4-4V62.758c.286.023.583.038.89.038.4 0 .788-.02 1.152-.058v24.3c0 2.205 1.794 4 4 4h.39c2.206 0 4-1.795 4-4v-26.36l5.765-1.482c.812-.208 1.45-.733 1.75-1.44.3-.706.236-1.53-.177-2.26l-3.33-5.88c.714.894 1.846 1.505 2.963 1.505h1.205c.848 0 1.59-.353 2.04-.97.45-.617.558-1.433.297-2.24zM13.41 44.863l-3.012-4.906c-.368-.6-.337-1.673.065-2.25l2.946-4.23v11.386zm65.895.223c-.34-.598-.902-1.13-1.55-1.53v-5.79l.566 1.63 2.946 9.128c.012.036.032.07.044.104l-2.005-3.543z"/></svg>