<svg xmlns="http://www.w3.org/2000/svg" viewBox="0 0 465.227 465.227"><path d="M184.324 102.514l-73.268.42c-6.975-.153-13.65 3.913-16.462 10.75l-64.468 156.71c-3.652 8.878.584 19.036 9.462 22.69 2.164.89 4.403 1.31 6.606 1.31 6.836 0 13.32-4.06 16.082-10.773l32.667-79.405v238.14c0 12.91 10.695 23.32 23.71 22.858 12.394-.44 22.038-11.004 22.038-23.407V318.36c0-4.823 3.642-9.035 8.455-9.346 5.274-.34 9.657 3.836 9.657 9.036v124.304c0 12.91 10.695 23.322 23.708 22.86 12.395-.44 22.04-11.006 22.04-23.41V122.742c.002-11.17-9.054-20.226-20.226-20.226zM283.375 45.208C283.375 20.236 263.14 0 238.168 0c-22.384 0-40.95 16.26-44.562 37.613C188.696 17.957 170.93 3.4 149.75 3.4c-24.974 0-45.21 20.235-45.21 45.207 0 24.97 20.236 45.21 45.21 45.21 22.384 0 40.95-16.263 44.56-37.614 4.91 19.656 22.676 34.215 43.858 34.215 24.973 0 45.207-20.238 45.207-45.21zM435.6 350.543c-3.237-11.554-15.232-18.296-26.786-15.054l-52.495 14.72-1.794-10.053 18.35-5.475c17.142-5.115 24.34-25.44 14.243-40.205l-60.044-87.807-6.29-21.077 54.01 66.75c3.435 4.247 8.457 6.45 13.523 6.45 3.84 0 7.704-1.266 10.922-3.87 7.463-6.04 8.618-16.984 2.58-24.447L295.235 98.746c-4.65-5.75-12.21-7.737-18.85-5.594-1.352.117-41.856 12.05-41.856 12.05-9.238 2.757-15.557 11.272-15.516 20.914l.926 218.25c-.355 17.884 16.805 30.938 33.947 25.822l5.43-1.62v73.67c0 12 9.728 21.727 21.728 21.727s21.73-9.728 21.73-21.728V355.6l9.838-2.935 5.127 28.746c1.076 6.034 4.65 11.333 9.84 14.59 3.495 2.193 7.504 3.324 11.552 3.324 1.964 0 3.938-.266 5.865-.807l75.548-21.185c11.556-3.24 18.296-15.234 15.056-26.79z"/></svg>