<svg xmlns="http://www.w3.org/2000/svg" viewBox="0 0 465.227 465.227"><path d="M184.324 102.514l-73.268.42c-6.975-.153-13.649 3.913-16.462 10.751L30.126 270.394c-3.652 8.878.584 19.036 9.462 22.689a17.314 17.314 0 0 0 6.606 1.312c6.836 0 13.32-4.06 16.082-10.774l32.667-79.406v238.139c0 12.91 10.695 23.322 23.709 22.859 12.395-.441 22.039-11.004 22.039-23.407V318.36c0-4.823 3.641-9.035 8.454-9.346a9.056 9.056 0 0 1 9.657 9.036v124.304c0 12.91 10.695 23.322 23.708 22.859 12.395-.44 22.041-11.005 22.041-23.408V122.741c.001-11.171-9.055-20.227-20.227-20.227zM283.375 45.208C283.375 20.236 263.141 0 238.168 0c-22.384 0-40.949 16.26-44.562 37.613-4.91-19.656-22.676-34.214-43.856-34.214-24.974 0-45.209 20.236-45.209 45.208 0 24.971 20.235 45.209 45.209 45.209 22.384 0 40.949-16.262 44.561-37.613 4.91 19.656 22.675 34.215 43.857 34.215 24.973 0 45.207-20.238 45.207-45.21zM435.601 350.543c-3.238-11.554-15.233-18.296-26.787-15.054l-52.495 14.72-1.793-10.052 18.349-5.475c17.143-5.115 24.342-25.439 14.244-40.205l-60.043-87.807-6.289-21.077 54.009 66.751c3.435 4.246 8.457 6.449 13.523 6.449 3.84 0 7.705-1.266 10.923-3.87 7.463-6.039 8.618-16.984 2.579-24.447L295.236 98.746c-4.65-5.749-12.21-7.737-18.851-5.594-1.351.117-41.855 12.051-41.855 12.051a21.728 21.728 0 0 0-15.516 20.913l.926 218.249c-.355 17.885 16.805 30.939 33.947 25.823l5.43-1.62v73.669c0 12 9.728 21.728 21.728 21.728s21.729-9.728 21.729-21.728v-86.636l9.839-2.936 5.127 28.746a21.724 21.724 0 0 0 21.392 17.913c1.964 0 3.938-.266 5.865-.807l75.548-21.185c11.556-3.241 18.296-15.234 15.056-26.789z"/></svg>