<svg xmlns="http://www.w3.org/2000/svg" viewBox="0 0 197.442 197.442" width="512" height="512"><path d="M186.696 83.902H40.775l136.473-49.707a5 5 0 0 0 2.987-6.409l-8.923-24.497a5.002 5.002 0 0 0-6.409-2.987L9.035 57.074a5.003 5.003 0 0 0-2.987 6.409l8.922 24.496c.159.436.381.828.638 1.188v103.275a5 5 0 0 0 5 5h166.088a5 5 0 0 0 5-5V88.902a5 5 0 0 0-5-5zm-20.573-65.64l3.005 8.248-4.662 1.698 1.657-9.946zm-37.251 5.806l19.34-7.044-3.034 18.209-19.34 7.044 3.034-18.209zM90.245 38.137l19.339-7.044-3.034 18.209-19.339 7.044 3.034-18.209zm-38.628 14.07l19.339-7.044-3.034 18.208-19.338 7.044 3.033-18.208zm-19.289 7.026l-3.034 18.208-6.638 2.418-5.5-15.1 15.172-5.526zm.548 50.74h-7.065V93.902h16.148l-9.083 16.071zm41.11 0H53.405l9.083-16.071H83.07l-9.084 16.071zm41.111 0H94.515l9.082-16.071h20.583l-9.083 16.071zm41.111 0h-20.583l9.083-16.071h20.583l-9.083 16.071zm25.488 0h-4.961l4.961-8.778v8.778z" fill="#FFF"/></svg>