<svg xmlns="http://www.w3.org/2000/svg" viewBox="0 0 197.442 197.442" width="512" height="512"><path d="M186.696 83.902H40.776l136.472-49.707c1.246-.454 2.26-1.384 2.82-2.586.56-1.203.62-2.578.167-3.824L171.312 3.29c-.945-2.597-3.815-3.93-6.41-2.988L9.036 57.074c-1.246.454-2.26 1.384-2.82 2.586s-.62 2.577-.167 3.823L14.97 87.98c.16.435.38.827.638 1.187v103.275c0 2.762 2.24 5 5 5h166.088c2.762 0 5-2.238 5-5V88.902c0-2.762-2.238-5-5-5zm-20.573-65.64l3.005 8.248-4.662 1.698 1.657-9.946zm-37.25 5.806l19.34-7.044-3.035 18.21-19.34 7.043 3.034-18.21zm-38.628 14.07l19.34-7.045-3.035 18.21-19.34 7.043 3.035-18.21zm-38.628 14.07l19.34-7.045L67.92 63.37l-19.338 7.045 3.033-18.208zm-19.29 7.025L29.295 77.44l-6.638 2.42-5.5-15.1 15.172-5.527zm.55 50.74H25.81v-16.07h16.15l-9.084 16.07zm41.11 0H53.404l9.083-16.07H83.07l-9.084 16.07zm41.11 0H94.515l9.082-16.07h20.583l-9.083 16.07zm41.11 0h-20.582l9.083-16.07h20.583l-9.082 16.07zm25.49 0h-4.962l4.96-8.778v8.778z" fill="#FFF"/></svg>