<svg xmlns="http://www.w3.org/2000/svg" width="512" height="512" viewBox="0 0 512 512"><path d="M256 256c61.875 0 112-57.313 112-128S317.875 0 256 0c-61.844 0-112 57.313-112 128s50.156 128 112 128zm0-32c-17.688 0-32-14.328-32-32h64c0 17.672-14.312 32-32 32zm-74.937-107.187c16.344 12.188 48.063 7.72 76-12.03 14.063-9.907 24.53-21.97 31-34.017C316.25 83.126 336 111.22 336 144c0 15.844-4.75 30.5-12.688 42.922L256 160l-67.313 26.922C180.75 174.5 176 159.844 176 144c0-9.594 2-18.672 5.063-27.187zM384 288h-64l-64 96-64-96h-64c-35.313 0-64 28.656-64 64v128c0 17.688 14.344 32 32 32h320c17.688 0 32-14.312 32-32V352c0-35.344-28.625-64-64-64z"/></svg>