<svg xmlns="http://www.w3.org/2000/svg" viewBox="0 0 480.925 480.925" width="512" height="512"><g fill="#FFF"><path d="M469.675 415.325l-100.2-100.2-7.2 7.2-11.1-11.1c56.9-76.3 50.8-184.8-18.5-254.1-76.2-76.1-199.5-76.1-275.6 0s-76.1 199.5 0 275.5c69.3 69.3 177.8 75.5 254.1 18.5l11.1 11.1-7.2 7.2 100.2 100.2c15 15 39.4 15 54.4 0 15-14.9 15-39.2 0-54.3zm-179.4-125c-52.7 52.7-138.2 52.7-190.9 0s-52.7-138.2 0-190.9 138.2-52.7 190.9 0 52.7 138.2 0 190.9z"/><path d="M155.675 186.225c2 12.9 12 29.4 28.4 35.2 6.7 2.4 14.1 2.4 20.8 0 16.1-5.8 26.4-22.2 28.4-35.1 2.2-.2 5-3.2 8.1-14.1 4.2-14.9-.3-17.1-4-16.7.7-2.1 1.3-4.1 1.6-6.1 6.4-38.5-12.6-39.9-12.6-39.9s-3.1-6-11.4-10.6c-5.5-3.3-13.3-5.8-23.5-5-3.3.2-6.4.8-9.3 1.8-3.7 1.3-7.2 3.1-10.3 5.3-3.8 2.4-7.4 5.4-10.6 8.7-5 5.1-9.5 11.8-11.4 20.1-1.6 6.2-1.3 12.6.1 19.6.4 2 .9 4.1 1.6 6.1-3.8-.4-8.3 1.8-4 16.7 3.1 10.8 6 13.9 8.1 14z"/><path d="M263.375 238.625c-22.6-8.6-36.1-17.5-36.1-17.5l-17.4 55-2.4 7.5-7.8-22.1c17.9-25-1.4-26.2-4.7-26.2h-.1-.1-.2c-3.3 0-22.6 1.2-4.7 26.2l-7.8 22.1-2.4-7.5-17.4-55s-13.5 8.8-36.1 17.5c-12.2 4.4-18 11.6-20.9 22.2 3.2 4.4 6.8 8.6 10.8 12.5 43.4 43.4 113.7 43.4 157.1 0 4-4 7.6-8.2 10.8-12.5-2.6-10.6-8.5-17.8-20.6-22.2z"/></g></svg>