<svg xmlns="http://www.w3.org/2000/svg" xmlns:xlink="http://www.w3.org/1999/xlink"><symbol viewBox="0 0 289.208 289.208" id="16"><path d="M284.275 176.745c5.099-3.41 6.468-10.308 3.058-15.405l-38.876-58.124c-5.15-7.695-13.022-11.707-21.287-11.707h-16.658c-9.588 0-17.229 5.802-22.101 13.327-.487.753 2.422-3.679-37.983 56.486-3.42 5.092-2.063 11.991 3.028 15.411 5.089 3.418 11.99 2.065 15.411-3.028l16.656-24.802.034 112.663c0 7.667 6.215 13.882 13.882 13.882s13.882-6.215 13.882-13.882v-62.471h11.107v62.471c0 7.667 6.215 13.882 13.882 13.882s13.882-6.215 13.882-13.882c0-119.736-.033-111.963-.033-112.865l16.712 24.986c3.414 5.106 10.317 6.463 15.404 3.058zM218.874 80.75c14.696 0 26.615-11.908 26.615-26.614 0-9.582-5.076-17.983-12.686-22.668 1.573-1.112 3.405-2.139 5.57-3.017a2.512 2.512 0 0 0 .215-4.561c-4.209-2.186-9.338-2.231-14.178-1.303a27.646 27.646 0 0 1 3.183-4.702 2.515 2.515 0 0 0-1.96-4.125c-9.728.111-18.649 9.972-22.203 15.869a16.673 16.673 0 0 0-1.837 4.284c-5.71 4.881-9.335 12.129-9.335 20.223.001 14.706 11.92 26.614 26.616 26.614zM100.382 104.202c-4.794-7.27-12.422-12.693-21.752-12.693H61.971c-9.491 0-17.747 5.292-21.977 13.086-.514.74-37.605 55.979-38.107 56.728-3.42 5.092-2.063 11.991 3.028 15.411 5.089 3.418 11.99 2.065 15.411-3.028l16.656-24.802v.307l-15.118 61.638a9.635 9.635 0 0 0 9.361 11.934h5.791v38.784c0 7.667 6.215 13.882 13.882 13.882s13.882-6.215 13.882-13.882v-38.784h11.106v38.784c0 7.667 6.215 13.882 13.882 13.882s13.882-6.215 13.882-13.882v-38.784h5.726a9.64 9.64 0 0 0 9.361-11.934l-15.119-61.642h-.001v-.403l16.724 24.902c3.421 5.094 10.323 6.445 15.411 3.028 5.092-3.42 6.448-10.319 3.028-15.411-41.021-61.085-37.918-56.392-38.398-57.121zM17.233 88.896a2.515 2.515 0 0 0 2.396-1.268c7.311-12.904 18.78-11.81 21.349-16.575.354-.658.633-1.336.839-2.025a4.164 4.164 0 0 0 3.044 1.34 4.133 4.133 0 0 0 3.254-1.584c4.763 7.21 12.935 11.967 22.221 11.967 9.285 0 17.458-4.757 22.22-11.967a4.13 4.13 0 0 0 6.299.244c.206.689.484 1.367.839 2.025 2.568 4.765 14.037 3.671 21.348 16.575a2.514 2.514 0 0 0 4.551-.378c3.329-9.14-2.747-20.968-7.012-26.376-3.668-4.653-9.315-7.166-14.532-4.355-.186.1-.357.215-.534.323l.043-.122a4.164 4.164 0 0 0-2.548-5.31c-1.479-.521-3.04-.143-4.134.827-.976-13.8-12.483-24.706-26.539-24.706-14.058 0-25.565 10.907-26.54 24.707-1.096-.97-2.658-1.348-4.134-.828a4.164 4.164 0 0 0-2.548 5.31l.043.122c-.177-.109-.349-.224-.533-.323-5.217-2.811-10.864-.299-14.533 4.355-4.265 5.408-10.341 17.236-7.012 26.376a2.51 2.51 0 0 0 2.153 1.646z"/></symbol><symbol viewBox="0 0 91.036 91.036" id="18"><path d="M24.183 20.458c5.641 0 10.229-4.589 10.229-10.229C34.412 4.589 29.824 0 24.183 0c-5.64 0-10.229 4.589-10.229 10.229 0 5.64 4.589 10.229 10.229 10.229zM68.13 18.188c5.014 0 9.094-4.079 9.094-9.094S73.144 0 68.13 0s-9.094 4.079-9.094 9.094 4.08 9.094 9.094 9.094zM88.374 47.909l-7.937-24.593c-.47-1.455-2.036-2.596-3.566-2.596H75.233c-.081 0-.155.018-.234.025-.082-.007-.161-.025-.245-.025H61.507c-.017 0-.032.005-.049.005-.016 0-.03-.005-.046-.005h-1.638c-1.47 0-3.132 1.031-3.785 2.347l-9.091 18.316-12.172-17.015c-.082-.114-.181-.212-.278-.311a3 3 0 0 0-2.494-1.337H15.127c-1.433 0-3.143.877-3.979 2.041L3.247 35.77c-.863 1.201-.97 3.152-.243 4.441l6.393 11.348c.711 1.264 2.404 2.253 3.854 2.253h.159v29.802c0 2.757 2.207 5 4.918 5s4.918-2.243 4.918-5V57.211h1.872v26.402c0 2.757 2.206 5 4.918 5s4.918-2.243 4.918-5V38.202l8.35 11.673c.14.196.302.371.482.525.367.549.95.944 1.664 1.084l1.443.282c.203.039.41.059.619.059 1.371 0 2.732-.829 3.312-2.016l7.684-15.753v9.501c-.65.399-1.213.931-1.552 1.529l-5.896 10.41c-.414.73-.478 1.553-.175 2.258s.942 1.227 1.757 1.431l6.398 1.6v26.251c0 2.206 1.794 4 4 4h.389c2.206 0 4-1.794 4-4V62.758a11.126 11.126 0 0 0 2.043-.02v24.299c0 2.206 1.794 4 4 4h.39c2.206 0 4-1.794 4-4v-26.36l5.765-1.481c.812-.208 1.45-.733 1.75-1.439.3-.707.236-1.53-.177-2.26l-3.331-5.882c.715.895 1.847 1.506 2.964 1.506H86.037c.848 0 1.591-.354 2.04-.971.45-.617.558-1.433.297-2.241zM13.41 44.864l-3.012-4.906c-.368-.6-.337-1.673.065-2.251l2.946-4.228v11.385zm65.895.223c-.339-.598-.902-1.13-1.551-1.529v-5.791l.567 1.631 2.945 9.127c.012.036.032.069.044.104l-2.005-3.542z"/></symbol><symbol viewBox="0 0 465.227 465.227" id="21"><path d="M184.324 102.514l-73.268.42c-6.975-.153-13.649 3.913-16.462 10.751L30.126 270.394c-3.652 8.878.584 19.036 9.462 22.689a17.314 17.314 0 0 0 6.606 1.312c6.836 0 13.32-4.06 16.082-10.774l32.667-79.406v238.139c0 12.91 10.695 23.322 23.709 22.859 12.395-.441 22.039-11.004 22.039-23.407V318.36c0-4.823 3.641-9.035 8.454-9.346a9.056 9.056 0 0 1 9.657 9.036v124.304c0 12.91 10.695 23.322 23.708 22.859 12.395-.44 22.041-11.005 22.041-23.408V122.741c.001-11.171-9.055-20.227-20.227-20.227zM283.375 45.208C283.375 20.236 263.141 0 238.168 0c-22.384 0-40.949 16.26-44.562 37.613-4.91-19.656-22.676-34.214-43.856-34.214-24.974 0-45.209 20.236-45.209 45.208 0 24.971 20.235 45.209 45.209 45.209 22.384 0 40.949-16.262 44.561-37.613 4.91 19.656 22.675 34.215 43.857 34.215 24.973 0 45.207-20.238 45.207-45.21zM435.601 350.543c-3.238-11.554-15.233-18.296-26.787-15.054l-52.495 14.72-1.793-10.052 18.349-5.475c17.143-5.115 24.342-25.439 14.244-40.205l-60.043-87.807-6.289-21.077 54.009 66.751c3.435 4.246 8.457 6.449 13.523 6.449 3.84 0 7.705-1.266 10.923-3.87 7.463-6.039 8.618-16.984 2.579-24.447L295.236 98.746c-4.65-5.749-12.21-7.737-18.851-5.594-1.351.117-41.855 12.051-41.855 12.051a21.728 21.728 0 0 0-15.516 20.913l.926 218.249c-.355 17.885 16.805 30.939 33.947 25.823l5.43-1.62v73.669c0 12 9.728 21.728 21.728 21.728s21.729-9.728 21.729-21.728v-86.636l9.839-2.936 5.127 28.746a21.724 21.724 0 0 0 21.392 17.913c1.964 0 3.938-.266 5.865-.807l75.548-21.185c11.556-3.241 18.296-15.234 15.056-26.789z"/></symbol><symbol viewBox="0 0 197.442 197.442" id="action"><path d="M186.696 83.902H40.775l136.473-49.707a5 5 0 0 0 2.987-6.409l-8.923-24.497a5.002 5.002 0 0 0-6.409-2.987L9.035 57.074a5.003 5.003 0 0 0-2.987 6.409l8.922 24.496c.159.436.381.828.638 1.188v103.275a5 5 0 0 0 5 5h166.088a5 5 0 0 0 5-5V88.902a5 5 0 0 0-5-5zm-20.573-65.64l3.005 8.248-4.662 1.698 1.657-9.946zm-37.251 5.806l19.34-7.044-3.034 18.209-19.34 7.044 3.034-18.209zM90.245 38.137l19.339-7.044-3.034 18.209-19.339 7.044 3.034-18.209zm-38.628 14.07l19.339-7.044-3.034 18.208-19.338 7.044 3.033-18.208zm-19.289 7.026l-3.034 18.208-6.638 2.418-5.5-15.1 15.172-5.526zm.548 50.74h-7.065V93.902h16.148l-9.083 16.071zm41.11 0H53.405l9.083-16.071H83.07l-9.084 16.071zm41.111 0H94.515l9.082-16.071h20.583l-9.083 16.071zm41.111 0h-20.583l9.083-16.071h20.583l-9.083 16.071zm25.488 0h-4.961l4.961-8.778v8.778z" fill="#FFF"/></symbol><symbol viewBox="0 0 486.805 486.805" id="dislike"><path d="M485.9 241.402l-26.8-167c-5.2-41.9-34.5-66-80.4-66H170.9c-19.2 0-36.9 8.3-49.4 21.6-4.5-5.5-11.4-8.9-19-8.9H24.7c-13.6 0-24.7 11.1-24.7 24.7v228.4c0 13.6 11.1 24.7 24.7 24.7h77.9c9 0 17-4.9 21.3-12.2l2.9.7c4.4 1.3 80.8 25 80.8 90.7v84.9c0 5.2 3.4 9.9 8.4 11.4.9.3 12.9 4 28.3 4 13.3 0 29.1-2.7 42.5-12.6 18.4-13.5 27.7-36.5 27.7-68.4v-75.8h105.1c15.6 0 31-5.8 43.3-16.2 18-15.4 26.9-40 23-64zm-382.7 32.9c0 .4-.3.7-.7.7H24.7c-.4 0-.7-.3-.7-.7v-228.4c0-.4.3-.7.7-.7h77.9c.4 0 .7.3.7.7v228.4h-.1zm344.1 12.9c-7.9 6.8-17.8 10.5-27.7 10.5H302.4c-6.6 0-12 5.4-12 12v87.8c0 23.8-6 40.3-17.8 49-13 9.6-30.8 8.6-41.1 7v-75.3c0-35.6-17.3-66.7-49.9-89.9-23.9-16.9-47.6-23.7-48.6-24-.2 0-.3-.1-.5-.1l-5.2-1.2v-191.5c.2-.7.4-1.4.5-2.1 3.3-21 21.8-36.9 43.1-36.9h207.8c33.9 0 52.9 15.2 56.6 45.1 0 .2 0 .3.1.4l26.9 167.1c2.5 15.9-3.3 32-15 42.1z"/></symbol><symbol style="height:1.5em;width:1.5em" viewBox="0 0 12 16" id="error"><path d="M5.05.31c.81 2.17.41 3.38-.52 4.31C3.55 5.67 1.98 6.45.9 7.98c-1.45 2.05-1.7 6.53 3.53 7.7-2.2-1.16-2.67-4.52-.3-6.61-.61 2.03.53 3.33 1.94 2.86 1.39-.47 2.3.53 2.27 1.67-.02.78-.31 1.44-1.13 1.81 3.42-.59 4.78-3.42 4.78-5.56 0-2.84-2.53-3.22-1.25-5.61-1.52.13-2.03 1.13-1.89 2.75.09 1.08-1.02 1.8-1.86 1.33-.67-.41-.66-1.19-.06-1.78C8.18 5.31 8.68 2.45 5.05.32L5.03.3z"/></symbol><symbol viewBox="0 0 537.6 537.6" id="female"><path d="M173.2 314.4c21.3 3.199 47.3-1.701 75.7-3.4 5.3 1.199 10.6 2 16.1 2 5.6 0 11.1-.801 16.6-2.1 73.9 3.6 131.5 24.5 131.5-125.9C413.1 82.9 346.8 0 265 0S116.9 82.9 116.9 185c0 82.1 15.7 114 41.2 125.1 4.7 2.2 9.8 3.5 15.1 4.3zm-23.6-187.1c15.5 21.5 55.7 16.9 90.4-10.3 8.8-6.9 16.5-14.8 22.7-22.8.8.1 1.6.2 2.4.4 3.4.6 6.5 1.8 10 2.9 3.101 1.5 6.5 2.7 9.5 4.6 3.101 1.6 5.9 3.8 8.7 5.7 2.5 2.2 5.3 4.3 7.4 6.7 2.199 2.2 4.3 4.6 5.899 6.9 1.8 2.2 3.101 4.5 4.4 6.5s2.399 3.8 3 5.4c1.5 3.1 2.399 4.9 2.399 4.9s-.3-1.9-.899-5.4c-.2-1.8-.7-3.8-1.3-6.2-.601-2.4-1.301-5.2-2.5-8-1-2.9-2.4-5.9-4-9.1-1.5-3.2-3.7-6.3-5.801-9.7-2.5-3.1-4.8-6.5-7.8-9.5-2.8-3.2-6.2-5.9-9.5-8.8-3.1-2.2-6.399-4.6-9.899-6.5 1.5-3.1 2.699-6.3 3.699-9.3 12.4 5.6 25.101 12.7 35.2 22.8 37.101 37.1 22.5 80.2 51.101 51.7 4.5-4.5 8.199-9.2 11.1-13.9 1 0 2-.1 2.8.1 3.9 1 6.4 4 7.8 6.4 3.9 6.5 4.801 15.9 2.4 25.3-3.6 14-12.8 22.3-20.2 23.2l-6 .8L361 188c-14.2 51.5-52.5 106.3-95.8 106.3s-81.5-54.8-95.8-106.3l-1.6-5.9-6-.8c-7.3-1-16.6-9.3-20.2-23.2-2.4-9.4-1.5-18.8 2.4-25.3.9-1.8 2.9-4.1 5.6-5.5zM376.3 327.9c-11.6 19.799-25.1 36.5-42.9 45.699-36.8 18.8-64.199 34.2-64.199 34.2l-.101-.1v-.301l-.3.2-.3-.2v.301l-.1.1s-27.3-15.2-64.2-34.2c-17.8-9.199-31.2-25.9-42.9-45.699-54.5 22.199-92.5 72.999-92.5 117.499v92.2h400v-92.2c0-44.399-38.1-95.299-92.5-117.499z"/></symbol><symbol viewBox="0 0 486.926 486.926" id="like"><path d="M462.8 181.564c-12.3-10.5-27.7-16.2-43.3-16.2H314.4v-75.9c0-31.9-9.3-54.9-27.7-68.4-29.1-21.4-69.2-9.2-70.9-8.6-5 1.6-8.4 6.2-8.4 11.4v84.9c0 27.7-13.2 51.2-39.3 69.9-19.5 14-39.4 20.1-41.5 20.8l-2.9.7c-4.3-7.3-12.2-12.2-21.3-12.2H24.7c-13.6 0-24.7 11.1-24.7 24.7v228.4c0 13.6 11.1 24.7 24.7 24.7h77.9c7.6 0 14.5-3.5 19-8.9 12.5 13.3 30.2 21.6 49.4 21.6h207.8c45.9 0 75.2-24 80.4-66l26.9-166.9c3.7-24-5.2-48.6-23.3-64zm-359.6 259.5c0 .4-.3.7-.7.7H24.7c-.4 0-.7-.3-.7-.7v-228.4c0-.4.3-.7.7-.7h77.9c.4 0 .7.3.7.7v228.4h-.1zm359-199.3l-26.8 167.2c0 .1 0 .3-.1.5-3.7 29.9-22.7 45.1-56.6 45.1H170.9c-21.3 0-39.8-15.9-43.1-36.9-.1-.7-.3-1.4-.5-2.1v-191.6l5.2-1.2c.2 0 .3-.1.5-.1 1-.3 24.7-7 48.6-24 32.7-23.2 49.9-54.3 49.9-89.9v-75.3c10.4-1.7 28.2-2.6 41.1 7 11.8 8.7 17.8 25.2 17.8 49v87.8c0 6.6 5.4 12 12 12h117.1c9.9 0 19.8 3.7 27.7 10.5 11.8 10.1 17.6 26.2 15 42z"/></symbol><symbol viewBox="0 0 512 512" id="male"><path d="M256 256c61.875 0 112-57.313 112-128S317.875 0 256 0c-61.844 0-112 57.313-112 128s50.156 128 112 128zm0-32c-17.688 0-32-14.328-32-32h64c0 17.672-14.312 32-32 32zm-74.937-107.187c16.344 12.188 48.063 7.719 76-12.031 14.063-9.906 24.531-21.969 31-34.016C316.25 83.125 336 111.219 336 144c0 15.844-4.75 30.5-12.688 42.922L256 160l-67.313 26.922C180.75 174.5 176 159.844 176 144c0-9.594 2-18.672 5.063-27.187zM384 288h-64l-64 96-64-96h-64c-35.313 0-64 28.656-64 64v128c0 17.688 14.344 32 32 32h320c17.688 0 32-14.312 32-32V352c0-35.344-28.625-64-64-64z"/></symbol><symbol style="height:1.7em;width:1.7em" viewBox="0 0 12 16" id="success"><path d="M12 5l-8 8-4-4 1.5-1.5L4 10l6.5-6.5L12 5z"/></symbol><symbol viewBox="0 0 486.4 486.4" id="trash"><path d="M446 70H344.8V53.5c0-29.5-24-53.5-53.5-53.5h-96.2c-29.5 0-53.5 24-53.5 53.5V70H40.4c-7.5 0-13.5 6-13.5 13.5S32.9 97 40.4 97h24.4v317.2c0 39.8 32.4 72.2 72.2 72.2h212.4c39.8 0 72.2-32.4 72.2-72.2V97H446c7.5 0 13.5-6 13.5-13.5S453.5 70 446 70zM168.6 53.5c0-14.6 11.9-26.5 26.5-26.5h96.2c14.6 0 26.5 11.9 26.5 26.5V70H168.6V53.5zm226 360.7c0 24.9-20.3 45.2-45.2 45.2H137c-24.9 0-45.2-20.3-45.2-45.2V97h302.9v317.2h-.1z"/><path d="M243.2 411c7.5 0 13.5-6 13.5-13.5V158.9c0-7.5-6-13.5-13.5-13.5s-13.5 6-13.5 13.5v238.5c0 7.5 6 13.6 13.5 13.6zM155.1 396.1c7.5 0 13.5-6 13.5-13.5V173.7c0-7.5-6-13.5-13.5-13.5s-13.5 6-13.5 13.5v208.9c0 7.5 6.1 13.5 13.5 13.5zM331.3 396.1c7.5 0 13.5-6 13.5-13.5V173.7c0-7.5-6-13.5-13.5-13.5s-13.5 6-13.5 13.5v208.9c0 7.5 6 13.5 13.5 13.5z"/></symbol><symbol viewBox="0 0 480.925 480.925" id="truth"><g fill="#FFF"><path d="M469.675 415.325l-100.2-100.2-7.2 7.2-11.1-11.1c56.9-76.3 50.8-184.8-18.5-254.1-76.2-76.1-199.5-76.1-275.6 0s-76.1 199.5 0 275.5c69.3 69.3 177.8 75.5 254.1 18.5l11.1 11.1-7.2 7.2 100.2 100.2c15 15 39.4 15 54.4 0 15-14.9 15-39.2 0-54.3zm-179.4-125c-52.7 52.7-138.2 52.7-190.9 0s-52.7-138.2 0-190.9 138.2-52.7 190.9 0 52.7 138.2 0 190.9z"/><path d="M155.675 186.225c2 12.9 12 29.4 28.4 35.2 6.7 2.4 14.1 2.4 20.8 0 16.1-5.8 26.4-22.2 28.4-35.1 2.2-.2 5-3.2 8.1-14.1 4.2-14.9-.3-17.1-4-16.7.7-2.1 1.3-4.1 1.6-6.1 6.4-38.5-12.6-39.9-12.6-39.9s-3.1-6-11.4-10.6c-5.5-3.3-13.3-5.8-23.5-5-3.3.2-6.4.8-9.3 1.8-3.7 1.3-7.2 3.1-10.3 5.3-3.8 2.4-7.4 5.4-10.6 8.7-5 5.1-9.5 11.8-11.4 20.1-1.6 6.2-1.3 12.6.1 19.6.4 2 .9 4.1 1.6 6.1-3.8-.4-8.3 1.8-4 16.7 3.1 10.8 6 13.9 8.1 14z"/><path d="M263.375 238.625c-22.6-8.6-36.1-17.5-36.1-17.5l-17.4 55-2.4 7.5-7.8-22.1c17.9-25-1.4-26.2-4.7-26.2h-.1-.1-.2c-3.3 0-22.6 1.2-4.7 26.2l-7.8 22.1-2.4-7.5-17.4-55s-13.5 8.8-36.1 17.5c-12.2 4.4-18 11.6-20.9 22.2 3.2 4.4 6.8 8.6 10.8 12.5 43.4 43.4 113.7 43.4 157.1 0 4-4 7.6-8.2 10.8-12.5-2.6-10.6-8.5-17.8-20.6-22.2z"/></g></symbol><symbol style="height:1.5em;width:1.5em" viewBox="0 0 16 16" id="warning"><path d="M15.72 12.5L8.87.52C8.69.21 8.36.02 8 .02s-.69.19-.87.5L.28 12.5c-.18.31-.18.69 0 1 .19.31.52.5.87.5h13.7c.36 0 .69-.19.86-.5s.18-.69.01-1zM9 12H7v-2h2v2zm0-3H7V5h2v4z"/></symbol></svg>