<svg xmlns="http://www.w3.org/2000/svg" xmlns:xlink="http://www.w3.org/1999/xlink"><symbol viewBox="0 0 537.6 537.6" id="female"><path d="M173.2 314.4c21.3 3.2 47.3-1.7 75.7-3.4 5.3 1.2 10.6 2 16.1 2 5.6 0 11.1-.8 16.6-2.1 73.9 3.6 131.5 24.5 131.5-125.9C413.1 82.9 346.8 0 265 0S116.9 82.9 116.9 185c0 82.1 15.7 114 41.2 125.1 4.7 2.2 9.8 3.5 15.1 4.3zm-23.6-187.1c15.5 21.5 55.7 16.9 90.4-10.3 8.8-6.9 16.5-14.8 22.7-22.8.8.1 1.6.2 2.4.4 3.4.6 6.5 1.8 10 2.9 3.1 1.5 6.5 2.7 9.5 4.6 3.1 1.6 5.9 3.8 8.7 5.7 2.5 2.2 5.3 4.3 7.4 6.7 2.2 2.2 4.3 4.6 5.9 6.9 1.8 2.2 3.1 4.5 4.4 6.5s2.398 3.8 3 5.4c1.5 3.1 2.398 4.9 2.398 4.9s-.3-1.9-.9-5.4c-.2-1.8-.7-3.8-1.3-6.2-.6-2.4-1.3-5.2-2.5-8-1-2.9-2.4-5.9-4-9.1-1.5-3.2-3.7-6.3-5.8-9.7-2.5-3.1-4.8-6.5-7.8-9.5-2.8-3.2-6.2-5.9-9.5-8.8-3.1-2.2-6.4-4.6-9.9-6.5 1.5-3.1 2.7-6.3 3.7-9.3 12.4 5.6 25.1 12.7 35.2 22.8 37.1 37.1 22.5 80.2 51.1 51.7 4.5-4.5 8.2-9.2 11.1-13.9 1 0 2-.1 2.8.1 3.9 1 6.4 4 7.8 6.4 3.9 6.5 4.802 15.9 2.4 25.3-3.6 14-12.8 22.3-20.2 23.2l-6 .8L361 188c-14.2 51.5-52.5 106.3-95.8 106.3s-81.5-54.8-95.8-106.3l-1.6-5.9-6-.8c-7.3-1-16.6-9.3-20.2-23.2-2.4-9.4-1.5-18.8 2.4-25.3.9-1.8 2.9-4.1 5.6-5.5zM376.3 327.9c-11.6 19.8-25.1 36.5-42.9 45.7-36.8 18.8-64.2 34.2-64.2 34.2l-.1-.1v-.302l-.3.2-.3-.2v.3l-.1.1s-27.3-15.2-64.2-34.2c-17.8-9.198-31.2-25.9-42.9-45.698-54.5 22.2-92.5 73-92.5 117.5v92.2h400v-92.2c0-44.4-38.1-95.3-92.5-117.5z"/></symbol><symbol viewBox="0 0 512 512" id="male"><path d="M256 256c61.875 0 112-57.313 112-128S317.875 0 256 0c-61.844 0-112 57.313-112 128s50.156 128 112 128zm0-32c-17.688 0-32-14.328-32-32h64c0 17.672-14.312 32-32 32zm-74.937-107.187c16.344 12.188 48.063 7.72 76-12.03 14.063-9.907 24.53-21.97 31-34.017C316.25 83.126 336 111.22 336 144c0 15.844-4.75 30.5-12.688 42.922L256 160l-67.313 26.922C180.75 174.5 176 159.844 176 144c0-9.594 2-18.672 5.063-27.187zM384 288h-64l-64 96-64-96h-64c-35.313 0-64 28.656-64 64v128c0 17.688 14.344 32 32 32h320c17.688 0 32-14.312 32-32V352c0-35.344-28.625-64-64-64z"/></symbol></svg>