<svg xmlns="http://www.w3.org/2000/svg" xmlns:xlink="http://www.w3.org/1999/xlink"><symbol viewBox="0 0 289.208 289.208" id="16"><path d="M284.275 176.745c5.1-3.41 6.468-10.308 3.058-15.405l-38.876-58.124c-5.15-7.695-13.022-11.707-21.287-11.707h-16.658c-9.588 0-17.23 5.8-22.1 13.326-.488.753 2.42-3.68-37.984 56.486-3.42 5.092-2.063 11.99 3.028 15.41 5.09 3.42 11.99 2.066 15.41-3.027l16.657-24.802.034 112.663c0 7.667 6.215 13.882 13.882 13.882 7.666 0 13.88-6.215 13.88-13.882v-62.47h11.108v62.47c0 7.667 6.215 13.882 13.882 13.882s13.882-6.215 13.882-13.882c0-119.736-.033-111.963-.033-112.865l16.71 24.987c3.415 5.106 10.318 6.463 15.405 3.058zM218.874 80.75c14.696 0 26.615-11.908 26.615-26.614 0-9.582-5.077-17.983-12.687-22.668 1.573-1.112 3.405-2.14 5.57-3.017.91-.367 1.52-1.23 1.567-2.21.047-.98-.48-1.897-1.352-2.35-4.21-2.186-9.338-2.23-14.178-1.303.82-1.538 1.855-3.11 3.183-4.702.628-.754.76-1.804.34-2.69-.42-.885-1.318-1.445-2.3-1.435-9.728.11-18.65 9.972-22.203 15.87-.826 1.37-1.446 2.82-1.837 4.283-5.71 4.88-9.335 12.13-9.335 20.223 0 14.706 11.92 26.614 26.616 26.614zM100.382 104.202C95.588 96.932 87.96 91.51 78.63 91.51H61.97c-9.49 0-17.746 5.29-21.976 13.085-.514.74-37.605 55.98-38.107 56.728-3.42 5.092-2.063 11.99 3.028 15.41 5.09 3.42 11.99 2.066 15.41-3.027l16.657-24.802v.307l-15.118 61.64c-.706 2.874-.05 5.914 1.776 8.243 1.828 2.33 4.624 3.69 7.585 3.69h5.79v38.784c0 7.667 6.216 13.882 13.883 13.882s13.882-6.216 13.882-13.883v-38.784h11.106v38.784c0 7.667 6.215 13.882 13.882 13.882s13.882-6.216 13.882-13.883v-38.784h5.726c2.96 0 5.757-1.36 7.585-3.69 1.828-2.33 2.483-5.37 1.777-8.244l-15.12-61.643v-.403l16.724 24.902c3.422 5.094 10.324 6.445 15.412 3.028 5.092-3.42 6.448-10.32 3.028-15.41-41.02-61.086-37.918-56.393-38.398-57.122zM17.233 88.896c.978.08 1.912-.414 2.396-1.268 7.31-12.904 18.78-11.81 21.348-16.575.354-.658.633-1.336.84-2.025.782.844 1.884 1.34 3.043 1.34.46 0 .926-.076 1.382-.237.77-.27 1.4-.75 1.873-1.346 4.763 7.21 12.935 11.967 22.22 11.967 9.286 0 17.46-4.756 22.22-11.966.473.596 1.104 1.076 1.875 1.347.457.162.923.238 1.38.238 1.16 0 2.262-.496 3.045-1.34.206.69.484 1.367.84 2.025 2.567 4.765 14.036 3.67 21.347 16.575.483.854 1.418 1.35 2.396 1.268.98-.08 1.82-.724 2.155-1.646 3.33-9.14-2.747-20.968-7.012-26.376-3.667-4.653-9.314-7.166-14.53-4.355-.187.1-.358.214-.535.322l.043-.122c.763-2.17-.378-4.547-2.548-5.31-1.48-.52-3.04-.143-4.134.827-.976-13.8-12.483-24.706-26.54-24.706-14.057 0-25.564 10.908-26.54 24.708-1.095-.97-2.657-1.348-4.133-.828-2.17.763-3.31 3.14-2.548 5.31l.043.122c-.177-.11-.35-.224-.533-.323-5.217-2.812-10.864-.3-14.533 4.354-4.265 5.408-10.34 17.236-7.012 26.376.334.922 1.175 1.565 2.153 1.646z"/></symbol><symbol viewBox="0 0 91.036 91.036" id="18"><path d="M24.183 20.458c5.64 0 10.23-4.59 10.23-10.23C34.412 4.59 29.822 0 24.182 0c-5.64 0-10.23 4.59-10.23 10.23 0 5.64 4.59 10.228 10.23 10.228zM68.13 18.188c5.014 0 9.094-4.08 9.094-9.094S73.144 0 68.13 0s-9.094 4.08-9.094 9.094 4.08 9.094 9.094 9.094zM88.374 47.91l-7.937-24.594c-.47-1.455-2.036-2.596-3.566-2.596H75.234c-.08 0-.155.018-.234.025-.083-.007-.162-.025-.246-.025H61.507c-.017 0-.032.005-.05.005-.015 0-.03-.005-.045-.005h-1.638c-1.47 0-3.132 1.03-3.785 2.347l-9.092 18.316-12.172-17.015c-.082-.114-.18-.212-.278-.31-.54-.806-1.455-1.338-2.494-1.338H15.127c-1.433 0-3.143.877-3.98 2.04l-7.9 11.01c-.863 1.2-.97 3.152-.243 4.44l6.393 11.35c.71 1.263 2.404 2.252 3.854 2.252h.16v29.802c0 2.757 2.207 5 4.918 5s4.918-2.243 4.918-5V57.21h1.872v26.403c0 2.757 2.206 5 4.918 5s4.918-2.243 4.918-5V38.203l8.35 11.673c.14.196.302.37.482.525.367.55.95.944 1.664 1.084l1.443.282c.203.04.41.06.62.06 1.37 0 2.73-.83 3.31-2.017l7.685-15.754v9.5c-.65.4-1.213.932-1.552 1.53l-5.896 10.41c-.414.73-.478 1.553-.175 2.258s.942 1.227 1.757 1.43l6.398 1.6v26.252c0 2.206 1.794 4 4 4h.39c2.205 0 4-1.794 4-4V62.758c.286.023.583.038.89.038.4 0 .788-.02 1.152-.058v24.3c0 2.205 1.794 4 4 4h.39c2.206 0 4-1.795 4-4v-26.36l5.765-1.482c.812-.208 1.45-.733 1.75-1.44.3-.706.236-1.53-.177-2.26l-3.33-5.88c.714.894 1.846 1.505 2.963 1.505h1.205c.848 0 1.59-.353 2.04-.97.45-.617.558-1.433.297-2.24zM13.41 44.863l-3.012-4.906c-.368-.6-.337-1.673.065-2.25l2.946-4.23v11.386zm65.895.223c-.34-.598-.902-1.13-1.55-1.53v-5.79l.566 1.63 2.946 9.128c.012.036.032.07.044.104l-2.005-3.543z"/></symbol><symbol viewBox="0 0 465.227 465.227" id="21"><path d="M184.324 102.514l-73.268.42c-6.975-.153-13.65 3.913-16.462 10.75l-64.468 156.71c-3.652 8.878.584 19.036 9.462 22.69 2.164.89 4.403 1.31 6.606 1.31 6.836 0 13.32-4.06 16.082-10.773l32.667-79.405v238.14c0 12.91 10.695 23.32 23.71 22.858 12.394-.44 22.038-11.004 22.038-23.407V318.36c0-4.823 3.642-9.035 8.455-9.346 5.274-.34 9.657 3.836 9.657 9.036v124.304c0 12.91 10.695 23.322 23.708 22.86 12.395-.44 22.04-11.006 22.04-23.41V122.742c.002-11.17-9.054-20.226-20.226-20.226zM283.375 45.208C283.375 20.236 263.14 0 238.168 0c-22.384 0-40.95 16.26-44.562 37.613C188.696 17.957 170.93 3.4 149.75 3.4c-24.974 0-45.21 20.235-45.21 45.207 0 24.97 20.236 45.21 45.21 45.21 22.384 0 40.95-16.263 44.56-37.614 4.91 19.656 22.676 34.215 43.858 34.215 24.973 0 45.207-20.238 45.207-45.21zM435.6 350.543c-3.237-11.554-15.232-18.296-26.786-15.054l-52.495 14.72-1.794-10.053 18.35-5.475c17.142-5.115 24.34-25.44 14.243-40.205l-60.044-87.807-6.29-21.077 54.01 66.75c3.435 4.247 8.457 6.45 13.523 6.45 3.84 0 7.704-1.266 10.922-3.87 7.463-6.04 8.618-16.984 2.58-24.447L295.235 98.746c-4.65-5.75-12.21-7.737-18.85-5.594-1.352.117-41.856 12.05-41.856 12.05-9.238 2.757-15.557 11.272-15.516 20.914l.926 218.25c-.355 17.884 16.805 30.938 33.947 25.822l5.43-1.62v73.67c0 12 9.728 21.727 21.728 21.727s21.73-9.728 21.73-21.728V355.6l9.838-2.935 5.127 28.746c1.076 6.034 4.65 11.333 9.84 14.59 3.495 2.193 7.504 3.324 11.552 3.324 1.964 0 3.938-.266 5.865-.807l75.548-21.185c11.556-3.24 18.296-15.234 15.056-26.79z"/></symbol><symbol viewBox="0 0 537.6 537.6" id="female"><path d="M173.2 314.4c21.3 3.2 47.3-1.7 75.7-3.4 5.3 1.2 10.6 2 16.1 2 5.6 0 11.1-.8 16.6-2.1 73.9 3.6 131.5 24.5 131.5-125.9C413.1 82.9 346.8 0 265 0S116.9 82.9 116.9 185c0 82.1 15.7 114 41.2 125.1 4.7 2.2 9.8 3.5 15.1 4.3zm-23.6-187.1c15.5 21.5 55.7 16.9 90.4-10.3 8.8-6.9 16.5-14.8 22.7-22.8.8.1 1.6.2 2.4.4 3.4.6 6.5 1.8 10 2.9 3.1 1.5 6.5 2.7 9.5 4.6 3.1 1.6 5.9 3.8 8.7 5.7 2.5 2.2 5.3 4.3 7.4 6.7 2.2 2.2 4.3 4.6 5.9 6.9 1.8 2.2 3.1 4.5 4.4 6.5s2.398 3.8 3 5.4c1.5 3.1 2.398 4.9 2.398 4.9s-.3-1.9-.9-5.4c-.2-1.8-.7-3.8-1.3-6.2-.6-2.4-1.3-5.2-2.5-8-1-2.9-2.4-5.9-4-9.1-1.5-3.2-3.7-6.3-5.8-9.7-2.5-3.1-4.8-6.5-7.8-9.5-2.8-3.2-6.2-5.9-9.5-8.8-3.1-2.2-6.4-4.6-9.9-6.5 1.5-3.1 2.7-6.3 3.7-9.3 12.4 5.6 25.1 12.7 35.2 22.8 37.1 37.1 22.5 80.2 51.1 51.7 4.5-4.5 8.2-9.2 11.1-13.9 1 0 2-.1 2.8.1 3.9 1 6.4 4 7.8 6.4 3.9 6.5 4.802 15.9 2.4 25.3-3.6 14-12.8 22.3-20.2 23.2l-6 .8L361 188c-14.2 51.5-52.5 106.3-95.8 106.3s-81.5-54.8-95.8-106.3l-1.6-5.9-6-.8c-7.3-1-16.6-9.3-20.2-23.2-2.4-9.4-1.5-18.8 2.4-25.3.9-1.8 2.9-4.1 5.6-5.5zM376.3 327.9c-11.6 19.8-25.1 36.5-42.9 45.7-36.8 18.8-64.2 34.2-64.2 34.2l-.1-.1v-.302l-.3.2-.3-.2v.3l-.1.1s-27.3-15.2-64.2-34.2c-17.8-9.198-31.2-25.9-42.9-45.698-54.5 22.2-92.5 73-92.5 117.5v92.2h400v-92.2c0-44.4-38.1-95.3-92.5-117.5z"/></symbol><symbol viewBox="0 0 512 512" id="male"><path d="M256 256c61.875 0 112-57.313 112-128S317.875 0 256 0c-61.844 0-112 57.313-112 128s50.156 128 112 128zm0-32c-17.688 0-32-14.328-32-32h64c0 17.672-14.312 32-32 32zm-74.937-107.187c16.344 12.188 48.063 7.72 76-12.03 14.063-9.907 24.53-21.97 31-34.017C316.25 83.126 336 111.22 336 144c0 15.844-4.75 30.5-12.688 42.922L256 160l-67.313 26.922C180.75 174.5 176 159.844 176 144c0-9.594 2-18.672 5.063-27.187zM384 288h-64l-64 96-64-96h-64c-35.313 0-64 28.656-64 64v128c0 17.688 14.344 32 32 32h320c17.688 0 32-14.312 32-32V352c0-35.344-28.625-64-64-64z"/></symbol></svg>